<svg width="856" height="650" viewBox="0 0 856 650" fill="none" xmlns="http://www.w3.org/2000/svg">
<path d="M1 246C1 316.855 59.5 375.5 59.5 411C33 440.5 12.3002 482.801 25.5002 542.001C42.0002 616.001 196.039 626.489 252 610.5C276.5 603.5 305.667 644.167 364 648.5C422.333 652.833 444.809 584.859 611 610.5C698.5 624 849 513 855 378.5C859.8 270.9 780 158.5 637.5 158.5C569.5 140.5 551.488 21.7606 461.5 3.99985C347.5 -18.5002 220 111.5 166 146.5C103.5 176.5 0.999997 165 1 246Z" fill="#344785" stroke="#344785"/>
</svg>
