<?xml version="1.0" encoding="utf-8"?>
<!-- Generator: Adobe Illustrator 24.2.3, SVG Export Plug-In . SVG Version: 6.00 Build 0)  -->
<svg version="1.1" id="Layer_1" xmlns="http://www.w3.org/2000/svg" xmlns:xlink="http://www.w3.org/1999/xlink" x="0px" y="0px"
	 viewBox="0 0 1280 855" style="enable-background:new 0 0 1280 855;" xml:space="preserve">
<style type="text/css">
	.st0{fill:#6387FC;}
</style>
<g transform="translate(0.000000,855.000000) scale(0.100000,-0.100000)">
	<path class="st0" d="M8129.3,8315c-19-1-84-7.6-145-12.4c-873.1-78.9-1730.1-675.8-2261.2-1572.1c-42-72.2-106-191-141-265.2
		c-35-74.1-69-134-76-134c-6,1-87,30.4-179,64.6c-299,112.2-473,140.7-736.1,121.7c-427-31.4-806.1-154.9-1167.1-380.2
		c-320-198.6-616-487.6-820.1-800.3c-94-144.5-201-364-260-536.1c-30-86.5-55-163.5-55-172c0-18.1-8-18.1-126,5.7
		c-346,68.4-827.1-6.7-1181.1-186.3c-282-142.6-528-361.2-691.1-614.9c-311-482.8-377-1129.1-176-1699.4
		c194-548.4,623-990.4,1161.1-1196.6c256-98.8,422-128.3,703.1-128.3c185,0,217,1.9,333,25.7c155,31.4,359,94.1,518,159.7l119,48.5
		l87-76c302-260.4,627-447.7,981.1-563.6c237-77,440-115,711.1-132.1c589-38,1171.1,116.9,1739.1,462.9l83,50.4l97-81.7
		c303-254.7,683.1-420.1,1117.1-485.7c153-22.8,492-22.8,625,0c471,81.7,872.1,295.6,1237.1,655.8c105,104.6,252,279.4,317,378.3
		l29,43.7l171-77.9c307-140.7,455-184.4,648-192c576-22.8,1148.1,263.3,1523.1,762.3c448,595.9,600,1470.4,394,2262.1
		c-211,811.7-779.1,1417.1-1494.1,1592c-64,16.2-127,28.5-140,28.5s-26,3.8-29,8.6c-4,4.8-15,57-26,116.9
		c-221,1206.1-1084.1,2175.6-2175.2,2445.5C8587.3,8304.6,8317.3,8332.1,8129.3,8315z"/>
</g>
</svg>
